<svg xmlns="http://www.w3.org/2000/svg" width="256" height="256" viewBox="0 0 1024 1024">
  <!-- 背景 -->
  <rect x="128" y="128" width="768" height="768" rx="48" ry="48" fill="#FF4757"/>
  <!-- Redis标志元素 -->
  <path d="M602.4,317.6c-5.6-4.7-12.7-6.2-19.6-4.6c-6.9,1.6-12.6,6.3-15.2,13.1c-2.7,6.8-2.3,14.4,1.2,20.8l195.8,424.1
    c3.5,7.5,10.9,12.3,19.2,12.3c9.4,0,17.7-7,18.8-16.1l35.1-356.8c1.3-12.7-8.1-24.1-20.7-25.5L602.4,317.6z" fill="#FFFFFF"/>
  <path d="M421.6,317.6L225.8,757.5c-1.2,9.1,7.2,17.4,16.3,17.4c9.3,0,17-7.7,17-17L265.6,561l156-336.9
    c1.2-2.7,3.9-4.4,6.8-4.4c3.1,0,5.8,1.9,6.8,5C570.2,271.8,535,448,421.6,317.6z" fill="#FFFFFF"/>
  <!-- 装饰元素 -->
  <circle cx="512" cy="400" r="80" fill="rgba(255,255,255,0.3)"/>
  <circle cx="512" cy="620" r="100" fill="rgba(255,255,255,0.2)"/>
  <!-- D字母代表Dalton -->
  <path d="M512,250c-80,0-150,70-150,150s70,150,150,150s150-70,150-150S592,250,512,250z M512,450c-40,0-70-30-70-70s30-70,70-70
    s70,30,70,70S552,450,512,450z" fill="#FFFFFF"/>
</svg>